<svg xmlns="http://www.w3.org/2000/svg" xmlns:xlink="http://www.w3.org/1999/xlink" xmlns:lucid="lucid" width="1315.5" height="921"><g transform="translate(360.5 200.5)" lucid:page-tab-id="0_0"><path d="M-500-500h1500v1500H-500z" fill="#fff"/><path d="M-280.25-140.25c0 10.9-8.84 19.75-19.75 19.75-10.9 0-19.75-8.84-19.75-19.75 0-10.9 8.84-19.75 19.75-19.75 10.9 0 19.75 8.84 19.75 19.75z" stroke="#3a414a" fill="#fff"/><path d="M-300-120.5v49.3a20.7 20.7 0 0 0 3.2 11.07L-260-2m-40-63.2L-340-2m0-98.75h80" stroke="#3a414a" fill="none"/><path d="M-340-154a6 6 0 0 1 6-6h68a6 6 0 0 1 6 6V14a6 6 0 0 1-6 6h-68a6 6 0 0 1-6-6z" fill="none"/><use xlink:href="#a" transform="matrix(1,0,0,1,-420,-2) translate(96.60493827160494 17.77777777777778)"/><path d="M540-130c0 27.6-31.34 50-70 50s-70-22.4-70-50 31.34-50 70-50 70 22.4 70 50z" stroke="#3a414a" fill="#fff"/><use xlink:href="#b" transform="matrix(1,0,0,1,400,-180) translate(16.054999999999996 42.525)"/><use xlink:href="#c" transform="matrix(1,0,0,1,400,-180) translate(80.95500000000001 42.525)"/><use xlink:href="#d" transform="matrix(1,0,0,1,400,-180) translate(43.53 64.125)"/><use xlink:href="#e" transform="matrix(1,0,0,1,400,-180) translate(63.53 64.125)"/><path d="M540-10c0 27.6-31.34 50-70 50s-70-22.4-70-50 31.34-50 70-50 70 22.4 70 50z" stroke="#3a414a" fill="#fff"/><use xlink:href="#f" transform="matrix(1,0,0,1,400,-60) translate(40.55499999999999 42.525)"/><use xlink:href="#g" transform="matrix(1,0,0,1,400,-60) translate(39.55499999999999 64.125)"/><path d="M832.33-10c0 30.02-34.1 54.35-76.17 54.35C714.1 44.35 680 20.02 680-10c0-30.02 34.1-54.35 76.16-54.35 42.07 0 76.17 24.33 76.17 54.35z" stroke="#3a414a" fill="#fff"/><use xlink:href="#h" transform="matrix(1,0,0,1,680,-64.35393032686753) translate(55.53 34.8375)"/><use xlink:href="#i" transform="matrix(1,0,0,1,680,-64.35393032686753) translate(11.104999999999999 56.4375)"/><use xlink:href="#j" transform="matrix(1,0,0,1,680,-64.35393032686753) translate(95.955 56.4375)"/><use xlink:href="#k" transform="matrix(1,0,0,1,680,-64.35393032686753) translate(43.55499999999999 78.03750000000001)"/><path d="M541-10h2.06m4.1 0h4.12m4.12 0h4.1m4.12 0h4.12m4.1 0h4.12m4.12 0h4.1m4.12 0h4.12m4.1 0h4.12m4.12 0h4.1m4.12 0h4.12m4.1 0h4.12m4.12 0h4.1m4.12 0h4.12m4.1 0H650m4.12 0h4.1m4.12 0h4.12m4.1 0h2.07" stroke="#3a414a" fill="none"/><path d="M541-9.53h-.52l.02-.47-.02-.47h.53z" stroke="#3a414a" stroke-width=".05" fill="#3a414a"/><path d="M678.52-10l-12.9 7.64v-15.28z" stroke="#3a414a" fill="#3a414a"/><path d="M553.17 122.98c0 27.62-34.3 50-76.6 50C434.3 173 400 150.6 400 123c0-27.6 34.3-50 76.58-50 42.3 0 76.6 22.4 76.6 50z" stroke="#3a414a" fill="#fff"/><use xlink:href="#l" transform="matrix(1,0,0,1,400,72.98518729142995) translate(27.355 33.410000000000004)"/><use xlink:href="#m" transform="matrix(1,0,0,1,400,72.98518729142995) translate(12.579999999999993 55.01)"/><use xlink:href="#n" transform="matrix(1,0,0,1,400,72.98518729142995) translate(96.48 55.01)"/><use xlink:href="#o" transform="matrix(1,0,0,1,400,72.98518729142995) translate(56.505 76.61)"/><path d="M206.67 224.15c0 28.25-32.84 51.16-73.34 51.16S60 252.4 60 224.16C60 195.9 92.83 173 133.33 173s73.34 22.9 73.34 51.15z" stroke="#1071e5" fill="#fff"/><use xlink:href="#p" transform="matrix(1,0,0,1,60,172.98518729142995) translate(47.555 56.24375)"/><use xlink:href="#q" transform="matrix(1,0,0,1,60,172.98518729142995) translate(85.505 56.24375)"/><path d="M-199.5-130H399M-199.5-130h-.5" stroke="#3a414a" fill="none"/><path d="M399.5-130l.02.47H399v-.94h.52z" stroke="#3a414a" stroke-width=".05" fill="#3a414a"/><path d="M399-10h-33.38a6 6 0 0 1-6-6v-58a6 6 0 0 0-6-6H-199.5" stroke="#3a414a" fill="none"/><path d="M399.5-10l.02.47H399v-.95h.52z" stroke="#3a414a" stroke-width=".05" fill="#3a414a"/><path d="M-199.5-80h-.5M399 122.98h-14.5a6 6 0 0 1-6-6V56a6 6 0 0 0-6-6H112.9a6 6 0 0 1-6-6v-78a6 6 0 0 0-6-6h-300.4" stroke="#3a414a" fill="none"/><path d="M399.5 122.98V123.46h-.5v-.95h.5z" stroke="#3a414a" stroke-width=".05" fill="#3a414a"/><path d="M-199.5-40h-.5" stroke="#3a414a" fill="none"/><path d="M-280.25 179.75c0 10.9-8.84 19.75-19.75 19.75-10.9 0-19.75-8.84-19.75-19.75 0-10.9 8.84-19.75 19.75-19.75 10.9 0 19.75 8.84 19.75 19.75z" stroke="#3a414a" fill="#fff"/><path d="M-300 199.5v49.3a20.7 20.7 0 0 0 3.2 11.07L-260 318m-40-63.2l-40 63.2m0-98.75h80" stroke="#3a414a" fill="none"/><path d="M-340 166a6 6 0 0 1 6-6h68a6 6 0 0 1 6 6v168a6 6 0 0 1-6 6h-68a6 6 0 0 1-6-6z" fill="none"/><use xlink:href="#r" transform="matrix(1,0,0,1,-420,318) translate(88.58024691358025 17.77777777777778)"/><path d="M380 395.16c0 30.47-40.3 55.17-90 55.17s-90-24.7-90-55.17c0-30.46 40.3-55.16 90-55.16s90 24.7 90 55.16z" stroke="#e81313" fill="#fff"/><use xlink:href="#s" transform="matrix(1,0,0,1,200,340) translate(75.53 38.68125)"/><use xlink:href="#t" transform="matrix(1,0,0,1,200,340) translate(15.130000000000004 60.28125)"/><use xlink:href="#u" transform="matrix(1,0,0,1,200,340) translate(65.505 81.88125000000001)"/><path d="M133.33 276.3v33.5a6 6 0 0 1-6 6H-52.1a6 6 0 0 1-6-6v-68a6 6 0 0 0-6-6h-172.2a3.7 3.7 0 0 0-3.7 3.7" stroke="#1071e5" fill="none"/><path d="M133.32 275.8h.5v.52h-.96v-.52z" stroke="#1071e5" stroke-width=".05" fill="#1071e5"/><path d="M-240 239.5v.5" stroke="#1071e5" fill="none"/><path d="M199 395.16h-308.57a6 6 0 0 1-6-6V236.3" stroke="#e81313" fill="none"/><path d="M199.5 395.16v.48h-.5v-.95h.5z" stroke="#e81313" stroke-width=".05" fill="#e81313"/><path d="M-115.57 236.32v-.5" stroke="#e81313" fill="none"/><path d="M565-34a6 6 0 0 1 6-6h78a6 6 0 0 1 6 6v8a6 6 0 0 1-6 6h-78a6 6 0 0 1-6-6z" stroke="#000" stroke-opacity="0" fill="#fff" fill-opacity="0"/><use xlink:href="#v" transform="matrix(1,0,0,1,570,-35) translate(18.925925925925934 10.666666666666664)"/><path d="M520 326a6 6 0 0 1 6-6h228a6 6 0 0 1 6 6v48a6 6 0 0 1-6 6H526a6 6 0 0 1-6-6z" fill="none"/><use xlink:href="#w" transform="matrix(1,0,0,1,520,320) translate(95.30864197530865 34.44444444444444)"/><path d="M586.83 366a6 6 0 0 1 6-6h228a6 6 0 0 1 6 6v48a6 6 0 0 1-6 6h-228a6 6 0 0 1-6-6z" fill="none"/><use xlink:href="#x" transform="matrix(1,0,0,1,586.8313788662681,360) translate(66.38888888888889 34.44444444444444)"/><use xlink:href="#y" transform="matrix(1,0,0,1,586.8313788662681,360) translate(137.9320987654321 34.44444444444444)"/><path d="M623.33 375.67a6 6 0 0 1 6-6h11.5a6 6 0 0 1 6 6V394a6 6 0 0 1-6 6h-11.5a6 6 0 0 1-6-6z" stroke="#1071e5" fill="#1071e5"/><path d="M623.33 426a6 6 0 0 1 6-6h11.5a6 6 0 0 1 6 6v18.33a6 6 0 0 1-6 6h-11.5a6 6 0 0 1-6-6z" stroke="#e81313" fill="#e81313"/><path d="M832.33 118.63c0 30.02-34.1 54.36-76.17 54.36-42.06 0-76.16-24.35-76.16-54.37 0-30.02 34.1-54.35 76.16-54.35 42.07 0 76.17 24.33 76.17 54.35z" stroke="#3a414a" fill="#fff"/><use xlink:href="#z" transform="matrix(1,0,0,1,680,64.2773266376949) translate(53.05500000000001 34.8375)"/><use xlink:href="#A" transform="matrix(1,0,0,1,680,64.2773266376949) translate(84.955 34.8375)"/><use xlink:href="#B" transform="matrix(1,0,0,1,680,64.2773266376949) translate(41.55499999999999 56.4375)"/><use xlink:href="#C" transform="matrix(1,0,0,1,680,64.2773266376949) translate(41.55499999999999 78.03750000000001)"/><path d="M553.88 118.63h1.96m3.9 0h3.92m3.9 0h3.92m3.9 0h3.92m3.9 0h3.92m3.9 0h3.92m3.9 0h3.92m3.9 0h3.92m3.9 0h3.96m4.02 0h4m4.03 0h4m4 0h4.03m4 0h4.02m4.02 0h4m4.02 0h4m4.02 0h2" stroke="#3a414a" fill="none"/><path d="M553.9 119.1h-.47l-.07-.64-.05-.3h.6z" stroke="#3a414a" stroke-width=".05" fill="#3a414a"/><path d="M678.52 118.63l-12.9 7.64V111z" stroke="#3a414a" fill="#3a414a"/><path d="M565 94.63a6 6 0 0 1 6-6h78a6 6 0 0 1 6 6v8a6 6 0 0 1-6 6h-78a6 6 0 0 1-6-6z" stroke="#000" stroke-opacity="0" fill="#fff" fill-opacity="0"/><g><use xlink:href="#D" transform="matrix(1,0,0,1,570,93.63125696456243) translate(18.925925925925934 10.666666666666664)"/></g><path d="M360 515.16c0 27.62-31.34 50-70 50s-70-22.38-70-50c0-27.6 31.34-50 70-50s70 22.4 70 50z" stroke="#e81313" fill="#fff"/><g><use xlink:href="#E" transform="matrix(1,0,0,1,220,465.16401856668676) translate(55.004999999999995 33.15)"/><use xlink:href="#F" transform="matrix(1,0,0,1,220,465.16401856668676) translate(14.104999999999992 54.75)"/><use xlink:href="#u" transform="matrix(1,0,0,1,220,465.16401856668676) translate(45.504999999999995 76.35000000000001)"/></g><path d="M219 515.16h-398.2a6 6 0 0 1-6-6V236.3" stroke="#e81313" fill="none"/><path d="M219.5 515.16l.02.48H219v-.95h.52z" stroke="#e81313" stroke-width=".05" fill="#e81313"/><path d="M-185.2 236.32v-.5" stroke="#e81313" fill="none"/><path d="M360 650c0 27.6-31.34 50-70 50s-70-22.4-70-50 31.34-50 70-50 70 22.4 70 50z" stroke="#e81313" fill="#fff"/><g><use xlink:href="#G" transform="matrix(1,0,0,1,220,600) translate(38.03 30.025)"/><use xlink:href="#H" transform="matrix(1,0,0,1,220,600) translate(42.055 51.625)"/><use xlink:href="#I" transform="matrix(1,0,0,1,220,600) translate(25.605 73.22500000000001)"/></g><path d="M219 650h-370.12a6 6 0 0 1-6-6V236.3" stroke="#e81313" fill="none"/><path d="M219.5 650l.02.48H219v-.96h.52z" stroke="#e81313" stroke-width=".05" fill="#e81313"/><path d="M-157.12 236.32v-.5" stroke="#e81313" fill="none"/><path d="M655 418.58a6 6 0 0 1 6-6h268a6 6 0 0 1 6 6v33.17a6 6 0 0 1-6 6H661a6 6 0 0 1-6-6z" fill="none"/><g><use xlink:href="#J" transform="matrix(1,0,0,1,655,412.5820092833434) translate(6.265432098765444 27.444444444444443)"/><use xlink:href="#K" transform="matrix(1,0,0,1,655,412.5820092833434) translate(82.74691358024691 27.444444444444443)"/><use xlink:href="#L" transform="matrix(1,0,0,1,655,412.5820092833434) translate(176.38888888888889 27.444444444444443)"/><use xlink:href="#M" transform="matrix(1,0,0,1,655,412.5820092833434) translate(226.94444444444443 27.444444444444443)"/></g><defs><path fill="#3a414a" d="M232-93c-1 65-40 97-104 97C67 4 28-28 28-90v-158h33c8 89-33 224 67 224 102 0 64-133 71-224h33v155" id="N"/><path fill="#3a414a" d="M135-143c-3-34-86-38-87 0 15 53 115 12 119 90S17 21 10-45l28-5c4 36 97 45 98 0-10-56-113-15-118-90-4-57 82-63 122-42 12 7 21 19 24 35" id="O"/><path fill="#3a414a" d="M100-194c63 0 86 42 84 106H49c0 40 14 67 53 68 26 1 43-12 49-29l28 8c-11 28-37 45-77 45C44 4 14-33 15-96c1-61 26-98 85-98zm52 81c6-60-76-77-97-28-3 7-6 17-6 28h103" id="P"/><path fill="#3a414a" d="M114-163C36-179 61-72 57 0H25l-1-190h30c1 12-1 29 2 39 6-27 23-49 58-41v29" id="Q"/><g id="a"><use transform="matrix(0.06172839506172839,0,0,0.06172839506172839,0,0)" xlink:href="#N"/><use transform="matrix(0.06172839506172839,0,0,0.06172839506172839,15.987654320987653,0)" xlink:href="#O"/><use transform="matrix(0.06172839506172839,0,0,0.06172839506172839,27.098765432098766,0)" xlink:href="#P"/><use transform="matrix(0.06172839506172839,0,0,0.06172839506172839,39.44444444444444,0)" xlink:href="#Q"/></g><path d="M160-131c35 5 61 23 61 61C221 17 115-2 30 0v-248c76 3 177-17 177 60 0 33-19 50-47 57zm-97-11c50-1 110 9 110-42 0-47-63-36-110-37v79zm0 115c55-2 124 14 124-45 0-56-70-42-124-44v89" id="R"/><path d="M114-163C36-179 61-72 57 0H25l-1-190h30c1 12-1 29 2 39 6-27 23-49 58-41v29" id="S"/><path d="M100-194c62-1 85 37 85 99 1 63-27 99-86 99S16-35 15-95c0-66 28-99 85-99zM99-20c44 1 53-31 53-75 0-43-8-75-51-75s-53 32-53 75 10 74 51 75" id="T"/><path d="M206 0h-36l-40-164L89 0H53L-1-190h32L70-26l43-164h34l41 164 42-164h31" id="U"/><path d="M135-143c-3-34-86-38-87 0 15 53 115 12 119 90S17 21 10-45l28-5c4 36 97 45 98 0-10-56-113-15-118-90-4-57 82-63 122-42 12 7 21 19 24 35" id="V"/><path d="M100-194c63 0 86 42 84 106H49c0 40 14 67 53 68 26 1 43-12 49-29l28 8c-11 28-37 45-77 45C44 4 14-33 15-96c1-61 26-98 85-98zm52 81c6-60-76-77-97-28-3 7-6 17-6 28h103" id="W"/><g id="b"><use transform="matrix(0.05,0,0,0.05,0,0)" xlink:href="#R"/><use transform="matrix(0.05,0,0,0.05,12,0)" xlink:href="#S"/><use transform="matrix(0.05,0,0,0.05,17.95,0)" xlink:href="#T"/><use transform="matrix(0.05,0,0,0.05,27.950000000000003,0)" xlink:href="#U"/><use transform="matrix(0.05,0,0,0.05,40.9,0)" xlink:href="#V"/><use transform="matrix(0.05,0,0,0.05,49.9,0)" xlink:href="#W"/></g><path d="M59-47c-2 24 18 29 38 22v24C64 9 27 4 27-40v-127H5v-23h24l9-43h21v43h35v23H59v120" id="X"/><path d="M179-190L93 31C79 59 56 82 12 73V49c39 6 53-20 64-50L1-190h34L92-34l54-156h33" id="Y"/><path d="M115-194c55 1 70 41 70 98S169 2 115 4C84 4 66-9 55-30l1 105H24l-1-265h31l2 30c10-21 28-34 59-34zm-8 174c40 0 45-34 45-75s-6-73-45-74c-42 0-51 32-51 76 0 43 10 73 51 73" id="Z"/><g id="c"><use transform="matrix(0.05,0,0,0.05,0,0)" xlink:href="#X"/><use transform="matrix(0.05,0,0,0.05,5,0)" xlink:href="#Y"/><use transform="matrix(0.05,0,0,0.05,14,0)" xlink:href="#Z"/><use transform="matrix(0.05,0,0,0.05,24,0)" xlink:href="#W"/><use transform="matrix(0.05,0,0,0.05,34,0)" xlink:href="#V"/></g><path d="M101-234c-31-9-42 10-38 44h38v23H63V0H32v-167H5v-23h27c-7-52 17-82 69-68v24" id="aa"/><g id="d"><use transform="matrix(0.05,0,0,0.05,0,0)" xlink:href="#T"/><use transform="matrix(0.05,0,0,0.05,10,0)" xlink:href="#aa"/></g><path d="M24 0v-261h32V0H24" id="ab"/><path d="M141-36C126-15 110 5 73 4 37 3 15-17 15-53c-1-64 63-63 125-63 3-35-9-54-41-54-24 1-41 7-42 31l-33-3c5-37 33-52 76-52 45 0 72 20 72 64v82c-1 20 7 32 28 27v20c-31 9-61-2-59-35zM48-53c0 20 12 33 32 33 41-3 63-29 60-74-43 2-92-5-92 41" id="ac"/><g id="e"><use transform="matrix(0.05,0,0,0.05,0,0)" xlink:href="#Z"/><use transform="matrix(0.05,0,0,0.05,10,0)" xlink:href="#ab"/><use transform="matrix(0.05,0,0,0.05,13.949999999999998,0)" xlink:href="#ac"/><use transform="matrix(0.05,0,0,0.05,23.95,0)" xlink:href="#Y"/></g><path d="M141 0L90-78 38 0H4l68-98-65-92h35l48 74 47-74h35l-64 92 68 98h-35" id="ad"/><g id="f"><use transform="matrix(0.05,0,0,0.05,0,0)" xlink:href="#W"/><use transform="matrix(0.05,0,0,0.05,10,0)" xlink:href="#ad"/><use transform="matrix(0.05,0,0,0.05,19,0)" xlink:href="#Z"/><use transform="matrix(0.05,0,0,0.05,29,0)" xlink:href="#ab"/><use transform="matrix(0.05,0,0,0.05,32.95,0)" xlink:href="#T"/><use transform="matrix(0.05,0,0,0.05,42.95,0)" xlink:href="#S"/><use transform="matrix(0.05,0,0,0.05,48.900000000000006,0)" xlink:href="#W"/></g><path d="M106-169C34-169 62-67 57 0H25v-261h32l-1 103c12-21 28-36 61-36 89 0 53 116 60 194h-32v-121c2-32-8-49-39-48" id="ae"/><path d="M24-231v-30h32v30H24zM24 0v-190h32V0H24" id="af"/><path d="M115-194c53 0 69 39 70 98 0 66-23 100-70 100C84 3 66-7 56-30L54 0H23l1-261h32v101c10-23 28-34 59-34zm-8 174c40 0 45-34 45-75 0-40-5-75-45-74-42 0-51 32-51 76 0 43 10 73 51 73" id="ag"/><g id="g"><use transform="matrix(0.05,0,0,0.05,0,0)" xlink:href="#W"/><use transform="matrix(0.05,0,0,0.05,10,0)" xlink:href="#ad"/><use transform="matrix(0.05,0,0,0.05,19,0)" xlink:href="#ae"/><use transform="matrix(0.05,0,0,0.05,29,0)" xlink:href="#af"/><use transform="matrix(0.05,0,0,0.05,32.95,0)" xlink:href="#ag"/><use transform="matrix(0.05,0,0,0.05,42.95,0)" xlink:href="#af"/><use transform="matrix(0.05,0,0,0.05,46.900000000000006,0)" xlink:href="#X"/><use transform="matrix(0.05,0,0,0.05,51.900000000000006,0)" xlink:href="#V"/></g><g id="h"><use transform="matrix(0.05,0,0,0.05,0,0)" xlink:href="#V"/><use transform="matrix(0.05,0,0,0.05,9,0)" xlink:href="#ae"/><use transform="matrix(0.05,0,0,0.05,19,0)" xlink:href="#T"/><use transform="matrix(0.05,0,0,0.05,29,0)" xlink:href="#U"/></g><path d="M96-169c-40 0-48 33-48 73s9 75 48 75c24 0 41-14 43-38l32 2c-6 37-31 61-74 61-59 0-76-41-82-99-10-93 101-131 147-64 4 7 5 14 7 22l-32 3c-4-21-16-35-41-35" id="ah"/><path d="M85-194c31 0 48 13 60 33l-1-100h32l1 261h-30c-2-10 0-23-3-31C134-8 116 4 85 4 32 4 16-35 15-94c0-66 23-100 70-100zm9 24c-40 0-46 34-46 75 0 40 6 74 45 74 42 0 51-32 51-76 0-42-9-74-50-73" id="ai"/><g id="i"><use transform="matrix(0.05,0,0,0.05,0,0)" xlink:href="#ah"/><use transform="matrix(0.05,0,0,0.05,9,0)" xlink:href="#T"/><use transform="matrix(0.05,0,0,0.05,19,0)" xlink:href="#S"/><use transform="matrix(0.05,0,0,0.05,24.95,0)" xlink:href="#S"/><use transform="matrix(0.05,0,0,0.05,30.899999999999995,0)" xlink:href="#W"/><use transform="matrix(0.05,0,0,0.05,40.9,0)" xlink:href="#ab"/><use transform="matrix(0.05,0,0,0.05,44.85,0)" xlink:href="#ac"/><use transform="matrix(0.05,0,0,0.05,54.85,0)" xlink:href="#X"/><use transform="matrix(0.05,0,0,0.05,59.85,0)" xlink:href="#W"/><use transform="matrix(0.05,0,0,0.05,69.85,0)" xlink:href="#ai"/></g><path d="M210-169c-67 3-38 105-44 169h-31v-121c0-29-5-50-35-48C34-165 62-65 56 0H25l-1-190h30c1 10-1 24 2 32 10-44 99-50 107 0 11-21 27-35 58-36 85-2 47 119 55 194h-31v-121c0-29-5-49-35-48" id="aj"/><g id="j"><use transform="matrix(0.05,0,0,0.05,0,0)" xlink:href="#ae"/><use transform="matrix(0.05,0,0,0.05,10,0)" xlink:href="#T"/><use transform="matrix(0.05,0,0,0.05,20,0)" xlink:href="#aj"/><use transform="matrix(0.05,0,0,0.05,34.95,0)" xlink:href="#W"/></g><path d="M108 0H70L1-190h34L89-25l56-165h34" id="ak"/><g id="k"><use transform="matrix(0.05,0,0,0.05,0,0)" xlink:href="#ac"/><use transform="matrix(0.05,0,0,0.05,10,0)" xlink:href="#ah"/><use transform="matrix(0.05,0,0,0.05,19,0)" xlink:href="#X"/><use transform="matrix(0.05,0,0,0.05,24,0)" xlink:href="#af"/><use transform="matrix(0.05,0,0,0.05,27.950000000000003,0)" xlink:href="#ak"/><use transform="matrix(0.05,0,0,0.05,36.95,0)" xlink:href="#af"/><use transform="matrix(0.05,0,0,0.05,40.900000000000006,0)" xlink:href="#X"/><use transform="matrix(0.05,0,0,0.05,45.900000000000006,0)" xlink:href="#W"/><use transform="matrix(0.05,0,0,0.05,55.900000000000006,0)" xlink:href="#V"/></g><path d="M117-194c89-4 53 116 60 194h-32v-121c0-31-8-49-39-48C34-167 62-67 57 0H25l-1-190h30c1 10-1 24 2 32 11-22 29-35 61-36" id="al"/><path d="M118-107v75H92v-75H18v-26h74v-75h26v75h74v26h-74" id="am"/><g id="l"><use transform="matrix(0.05,0,0,0.05,0,0)" xlink:href="#af"/><use transform="matrix(0.05,0,0,0.05,3.95,0)" xlink:href="#al"/><use transform="matrix(0.05,0,0,0.05,13.949999999999998,0)" xlink:href="#aa"/><use transform="matrix(0.05,0,0,0.05,18.95,0)" xlink:href="#T"/><use transform="matrix(0.05,0,0,0.05,28.950000000000003,0)" xlink:href="#S"/><use transform="matrix(0.05,0,0,0.05,34.9,0)" xlink:href="#aj"/><use transform="matrix(0.05,0,0,0.05,49.85,0)" xlink:href="#ac"/><use transform="matrix(0.05,0,0,0.05,59.85,0)" xlink:href="#X"/><use transform="matrix(0.05,0,0,0.05,64.85,0)" xlink:href="#af"/><use transform="matrix(0.05,0,0,0.05,68.8,0)" xlink:href="#ak"/><use transform="matrix(0.05,0,0,0.05,77.8,0)" xlink:href="#W"/><use transform="matrix(0.05,0,0,0.05,87.8,0)" xlink:href="#am"/></g><path d="M177-190C167-65 218 103 67 71c-23-6-38-20-44-43l32-5c15 47 100 32 89-28v-30C133-14 115 1 83 1 29 1 15-40 15-95c0-56 16-97 71-98 29-1 48 16 59 35 1-10 0-23 2-32h30zM94-22c36 0 50-32 50-73 0-42-14-75-50-75-39 0-46 34-46 75s6 73 46 73" id="an"/><path d="M9 0v-24l116-142H16v-24h144v24L44-24h123V0H9" id="ao"/><g id="m"><use transform="matrix(0.05,0,0,0.05,0,0)" xlink:href="#T"/><use transform="matrix(0.05,0,0,0.05,10,0)" xlink:href="#S"/><use transform="matrix(0.05,0,0,0.05,15.949999999999998,0)" xlink:href="#an"/><use transform="matrix(0.05,0,0,0.05,25.950000000000003,0)" xlink:href="#ac"/><use transform="matrix(0.05,0,0,0.05,35.95,0)" xlink:href="#al"/><use transform="matrix(0.05,0,0,0.05,45.95,0)" xlink:href="#af"/><use transform="matrix(0.05,0,0,0.05,49.900000000000006,0)" xlink:href="#ao"/><use transform="matrix(0.05,0,0,0.05,58.900000000000006,0)" xlink:href="#W"/><use transform="matrix(0.05,0,0,0.05,68.9,0)" xlink:href="#ai"/></g><g id="n"><use transform="matrix(0.05,0,0,0.05,0,0)" xlink:href="#ae"/><use transform="matrix(0.05,0,0,0.05,10,0)" xlink:href="#T"/><use transform="matrix(0.05,0,0,0.05,20,0)" xlink:href="#aj"/><use transform="matrix(0.05,0,0,0.05,34.95,0)" xlink:href="#W"/></g><g id="o"><use transform="matrix(0.05,0,0,0.05,0,0)" xlink:href="#Z"/><use transform="matrix(0.05,0,0,0.05,10,0)" xlink:href="#ac"/><use transform="matrix(0.05,0,0,0.05,20,0)" xlink:href="#an"/><use transform="matrix(0.05,0,0,0.05,30,0)" xlink:href="#W"/></g><path fill="#1071e5" d="M135-143c-3-34-86-38-87 0 15 53 115 12 119 90S17 21 10-45l28-5c4 36 97 45 98 0-10-56-113-15-118-90-4-57 82-63 122-42 12 7 21 19 24 35" id="ap"/><path fill="#1071e5" d="M24-231v-30h32v30H24zM24 0v-190h32V0H24" id="aq"/><path fill="#1071e5" d="M177-190C167-65 218 103 67 71c-23-6-38-20-44-43l32-5c15 47 100 32 89-28v-30C133-14 115 1 83 1 29 1 15-40 15-95c0-56 16-97 71-98 29-1 48 16 59 35 1-10 0-23 2-32h30zM94-22c36 0 50-32 50-73 0-42-14-75-50-75-39 0-46 34-46 75s6 73 46 73" id="ar"/><path fill="#1071e5" d="M117-194c89-4 53 116 60 194h-32v-121c0-31-8-49-39-48C34-167 62-67 57 0H25l-1-190h30c1 10-1 24 2 32 11-22 29-35 61-36" id="as"/><g id="p"><use transform="matrix(0.05,0,0,0.05,0,0)" xlink:href="#ap"/><use transform="matrix(0.05,0,0,0.05,9,0)" xlink:href="#aq"/><use transform="matrix(0.05,0,0,0.05,12.949999999999998,0)" xlink:href="#ar"/><use transform="matrix(0.05,0,0,0.05,22.95,0)" xlink:href="#as"/></g><g id="q"><use transform="matrix(0.05,0,0,0.05,0,0)" xlink:href="#aq"/><use transform="matrix(0.05,0,0,0.05,3.95,0)" xlink:href="#as"/></g><path fill="#3a414a" d="M205 0l-28-72H64L36 0H1l101-248h38L239 0h-34zm-38-99l-47-123c-12 45-31 82-46 123h93" id="at"/><path fill="#3a414a" d="M85-194c31 0 48 13 60 33l-1-100h32l1 261h-30c-2-10 0-23-3-31C134-8 116 4 85 4 32 4 16-35 15-94c0-66 23-100 70-100zm9 24c-40 0-46 34-46 75 0 40 6 74 45 74 42 0 51-32 51-76 0-42-9-74-50-73" id="au"/><path fill="#3a414a" d="M210-169c-67 3-38 105-44 169h-31v-121c0-29-5-50-35-48C34-165 62-65 56 0H25l-1-190h30c1 10-1 24 2 32 10-44 99-50 107 0 11-21 27-35 58-36 85-2 47 119 55 194h-31v-121c0-29-5-49-35-48" id="av"/><path fill="#3a414a" d="M24-231v-30h32v30H24zM24 0v-190h32V0H24" id="aw"/><path fill="#3a414a" d="M117-194c89-4 53 116 60 194h-32v-121c0-31-8-49-39-48C34-167 62-67 57 0H25l-1-190h30c1 10-1 24 2 32 11-22 29-35 61-36" id="ax"/><g id="r"><use transform="matrix(0.06172839506172839,0,0,0.06172839506172839,0,0)" xlink:href="#at"/><use transform="matrix(0.06172839506172839,0,0,0.06172839506172839,14.814814814814813,0)" xlink:href="#au"/><use transform="matrix(0.06172839506172839,0,0,0.06172839506172839,27.160493827160494,0)" xlink:href="#av"/><use transform="matrix(0.06172839506172839,0,0,0.06172839506172839,45.61728395061728,0)" xlink:href="#aw"/><use transform="matrix(0.06172839506172839,0,0,0.06172839506172839,50.49382716049382,0)" xlink:href="#ax"/></g><path fill="#e81313" d="M100-194c63 0 86 42 84 106H49c0 40 14 67 53 68 26 1 43-12 49-29l28 8c-11 28-37 45-77 45C44 4 14-33 15-96c1-61 26-98 85-98zm52 81c6-60-76-77-97-28-3 7-6 17-6 28h103" id="ay"/><path fill="#e81313" d="M85-194c31 0 48 13 60 33l-1-100h32l1 261h-30c-2-10 0-23-3-31C134-8 116 4 85 4 32 4 16-35 15-94c0-66 23-100 70-100zm9 24c-40 0-46 34-46 75 0 40 6 74 45 74 42 0 51-32 51-76 0-42-9-74-50-73" id="az"/><path fill="#e81313" d="M24-231v-30h32v30H24zM24 0v-190h32V0H24" id="aA"/><path fill="#e81313" d="M59-47c-2 24 18 29 38 22v24C64 9 27 4 27-40v-127H5v-23h24l9-43h21v43h35v23H59v120" id="aB"/><g id="s"><use transform="matrix(0.05,0,0,0.05,0,0)" xlink:href="#ay"/><use transform="matrix(0.05,0,0,0.05,10,0)" xlink:href="#az"/><use transform="matrix(0.05,0,0,0.05,20,0)" xlink:href="#aA"/><use transform="matrix(0.05,0,0,0.05,23.95,0)" xlink:href="#aB"/></g><path fill="#e81313" d="M141 0L90-78 38 0H4l68-98-65-92h35l48 74 47-74h35l-64 92 68 98h-35" id="aC"/><path fill="#e81313" d="M106-169C34-169 62-67 57 0H25v-261h32l-1 103c12-21 28-36 61-36 89 0 53 116 60 194h-32v-121c2-32-8-49-39-48" id="aD"/><path fill="#e81313" d="M115-194c53 0 69 39 70 98 0 66-23 100-70 100C84 3 66-7 56-30L54 0H23l1-261h32v101c10-23 28-34 59-34zm-8 174c40 0 45-34 45-75 0-40-5-75-45-74-42 0-51 32-51 76 0 43 10 73 51 73" id="aE"/><path fill="#e81313" d="M0 4l72-265h28L28 4H0" id="aF"/><path fill="#e81313" d="M141-36C126-15 110 5 73 4 37 3 15-17 15-53c-1-64 63-63 125-63 3-35-9-54-41-54-24 1-41 7-42 31l-33-3c5-37 33-52 76-52 45 0 72 20 72 64v82c-1 20 7 32 28 27v20c-31 9-61-2-59-35zM48-53c0 20 12 33 32 33 41-3 63-29 60-74-43 2-92-5-92 41" id="aG"/><path fill="#e81313" d="M96-169c-40 0-48 33-48 73s9 75 48 75c24 0 41-14 43-38l32 2c-6 37-31 61-74 61-59 0-76-41-82-99-10-93 101-131 147-64 4 7 5 14 7 22l-32 3c-4-21-16-35-41-35" id="aH"/><path fill="#e81313" d="M108 0H70L1-190h34L89-25l56-165h34" id="aI"/><path fill="#e81313" d="M179-190L93 31C79 59 56 82 12 73V49c39 6 53-20 64-50L1-190h34L92-34l54-156h33" id="aJ"/><path fill="#e81313" d="M115-194c55 1 70 41 70 98S169 2 115 4C84 4 66-9 55-30l1 105H24l-1-265h31l2 30c10-21 28-34 59-34zm-8 174c40 0 45-34 45-75s-6-73-45-74c-42 0-51 32-51 76 0 43 10 73 51 73" id="aK"/><path fill="#e81313" d="M24 0v-261h32V0H24" id="aL"/><g id="t"><use transform="matrix(0.05,0,0,0.05,0,0)" xlink:href="#ay"/><use transform="matrix(0.05,0,0,0.05,10,0)" xlink:href="#aC"/><use transform="matrix(0.05,0,0,0.05,19,0)" xlink:href="#aD"/><use transform="matrix(0.05,0,0,0.05,29,0)" xlink:href="#aA"/><use transform="matrix(0.05,0,0,0.05,32.95,0)" xlink:href="#aE"/><use transform="matrix(0.05,0,0,0.05,42.95,0)" xlink:href="#aA"/><use transform="matrix(0.05,0,0,0.05,46.900000000000006,0)" xlink:href="#aB"/><use transform="matrix(0.05,0,0,0.05,51.900000000000006,0)" xlink:href="#aF"/><use transform="matrix(0.05,0,0,0.05,56.900000000000006,0)" xlink:href="#aG"/><use transform="matrix(0.05,0,0,0.05,66.9,0)" xlink:href="#aH"/><use transform="matrix(0.05,0,0,0.05,75.9,0)" xlink:href="#aB"/><use transform="matrix(0.05,0,0,0.05,80.9,0)" xlink:href="#aA"/><use transform="matrix(0.05,0,0,0.05,84.85000000000001,0)" xlink:href="#aI"/><use transform="matrix(0.05,0,0,0.05,93.85000000000001,0)" xlink:href="#aA"/><use transform="matrix(0.05,0,0,0.05,97.80000000000001,0)" xlink:href="#aB"/><use transform="matrix(0.05,0,0,0.05,102.80000000000001,0)" xlink:href="#aJ"/><use transform="matrix(0.05,0,0,0.05,111.80000000000001,0)" xlink:href="#aF"/><use transform="matrix(0.05,0,0,0.05,116.80000000000001,0)" xlink:href="#aK"/><use transform="matrix(0.05,0,0,0.05,126.80000000000001,0)" xlink:href="#aL"/><use transform="matrix(0.05,0,0,0.05,130.75,0)" xlink:href="#aG"/><use transform="matrix(0.05,0,0,0.05,140.75,0)" xlink:href="#aJ"/></g><path fill="#e81313" d="M177-190C167-65 218 103 67 71c-23-6-38-20-44-43l32-5c15 47 100 32 89-28v-30C133-14 115 1 83 1 29 1 15-40 15-95c0-56 16-97 71-98 29-1 48 16 59 35 1-10 0-23 2-32h30zM94-22c36 0 50-32 50-73 0-42-14-75-50-75-39 0-46 34-46 75s6 73 46 73" id="aM"/><path fill="#e81313" d="M135-143c-3-34-86-38-87 0 15 53 115 12 119 90S17 21 10-45l28-5c4 36 97 45 98 0-10-56-113-15-118-90-4-57 82-63 122-42 12 7 21 19 24 35" id="aN"/><g id="u"><use transform="matrix(0.05,0,0,0.05,0,0)" xlink:href="#aK"/><use transform="matrix(0.05,0,0,0.05,10,0)" xlink:href="#aG"/><use transform="matrix(0.05,0,0,0.05,20,0)" xlink:href="#aM"/><use transform="matrix(0.05,0,0,0.05,30,0)" xlink:href="#ay"/><use transform="matrix(0.05,0,0,0.05,40,0)" xlink:href="#aN"/></g><path fill="#3a414a" d="M96-169c-40 0-48 33-48 73s9 75 48 75c24 0 41-14 43-38l32 2c-6 37-31 61-74 61-59 0-76-41-82-99-10-93 101-131 147-64 4 7 5 14 7 22l-32 3c-4-21-16-35-41-35" id="aO"/><path fill="#3a414a" d="M24 0v-261h32V0H24" id="aP"/><path fill="#3a414a" d="M84 4C-5 8 30-112 23-190h32v120c0 31 7 50 39 49 72-2 45-101 50-169h31l1 190h-30c-1-10 1-25-2-33-11 22-28 36-60 37" id="aQ"/><g id="v"><use transform="matrix(0.03703703703703702,0,0,0.03703703703703702,0,0)" xlink:href="#aw"/><use transform="matrix(0.03703703703703702,0,0,0.03703703703703702,2.9259259259259247,0)" xlink:href="#ax"/><use transform="matrix(0.03703703703703702,0,0,0.03703703703703702,10.333333333333329,0)" xlink:href="#aO"/><use transform="matrix(0.03703703703703702,0,0,0.03703703703703702,16.999999999999993,0)" xlink:href="#aP"/><use transform="matrix(0.03703703703703702,0,0,0.03703703703703702,19.925925925925917,0)" xlink:href="#aQ"/><use transform="matrix(0.03703703703703702,0,0,0.03703703703703702,27.33333333333332,0)" xlink:href="#au"/><use transform="matrix(0.03703703703703702,0,0,0.03703703703703702,34.740740740740726,0)" xlink:href="#P"/></g><path fill="#3a414a" d="M194 0L95-120 63-95V0H30v-248h33v124l119-124h40L117-140 236 0h-42" id="aR"/><path fill="#3a414a" d="M30 0v-248h187v28H63v79h144v27H63v87h162V0H30" id="aS"/><path fill="#3a414a" d="M137-103V0h-34v-103L8-248h37l75 118 75-118h37" id="aT"/><path fill="#3a414a" d="M33-154v-36h34v36H33zM33 0v-36h34V0H33" id="aU"/><g id="w"><use transform="matrix(0.06172839506172839,0,0,0.06172839506172839,0,0)" xlink:href="#aR"/><use transform="matrix(0.06172839506172839,0,0,0.06172839506172839,14.814814814814813,0)" xlink:href="#aS"/><use transform="matrix(0.06172839506172839,0,0,0.06172839506172839,29.629629629629626,0)" xlink:href="#aT"/><use transform="matrix(0.06172839506172839,0,0,0.06172839506172839,43.20987654320987,0)" xlink:href="#aU"/></g><path fill="#3a414a" d="M100-194c62-1 85 37 85 99 1 63-27 99-86 99S16-35 15-95c0-66 28-99 85-99zM99-20c44 1 53-31 53-75 0-43-8-75-51-75s-53 32-53 75 10 74 51 75" id="aV"/><g id="x"><use transform="matrix(0.06172839506172839,0,0,0.06172839506172839,0,0)" xlink:href="#aV"/><use transform="matrix(0.06172839506172839,0,0,0.06172839506172839,12.345679012345679,0)" xlink:href="#aO"/><use transform="matrix(0.06172839506172839,0,0,0.06172839506172839,23.45679012345679,0)" xlink:href="#aO"/><use transform="matrix(0.06172839506172839,0,0,0.06172839506172839,34.5679012345679,0)" xlink:href="#aQ"/><use transform="matrix(0.06172839506172839,0,0,0.06172839506172839,46.913580246913575,0)" xlink:href="#Q"/><use transform="matrix(0.06172839506172839,0,0,0.06172839506172839,54.25925925925925,0)" xlink:href="#O"/></g><path fill="#3a414a" d="M101-234c-31-9-42 10-38 44h38v23H63V0H32v-167H5v-23h27c-7-52 17-82 69-68v24" id="aW"/><path fill="#3a414a" d="M59-47c-2 24 18 29 38 22v24C64 9 27 4 27-40v-127H5v-23h24l9-43h21v43h35v23H59v120" id="aX"/><g id="y"><use transform="matrix(0.06172839506172839,0,0,0.06172839506172839,0,0)" xlink:href="#aW"/><use transform="matrix(0.06172839506172839,0,0,0.06172839506172839,6.172839506172839,0)" xlink:href="#aw"/><use transform="matrix(0.06172839506172839,0,0,0.06172839506172839,11.049382716049383,0)" xlink:href="#Q"/><use transform="matrix(0.06172839506172839,0,0,0.06172839506172839,18.395061728395063,0)" xlink:href="#O"/><use transform="matrix(0.06172839506172839,0,0,0.06172839506172839,29.506172839506174,0)" xlink:href="#aX"/></g><path d="M143 0L79-87 56-68V0H24v-261h32v163l83-92h37l-77 82L181 0h-38" id="aY"/><g id="z"><use transform="matrix(0.05,0,0,0.05,0,0)" xlink:href="#ab"/><use transform="matrix(0.05,0,0,0.05,3.95,0)" xlink:href="#af"/><use transform="matrix(0.05,0,0,0.05,7.9,0)" xlink:href="#al"/><use transform="matrix(0.05,0,0,0.05,17.9,0)" xlink:href="#aY"/></g><g id="A"><use transform="matrix(0.05,0,0,0.05,0,0)" xlink:href="#X"/><use transform="matrix(0.05,0,0,0.05,5,0)" xlink:href="#T"/></g><path d="M84 4C-5 8 30-112 23-190h32v120c0 31 7 50 39 49 72-2 45-101 50-169h31l1 190h-30c-1-10 1-25-2-33-11 22-28 36-60 37" id="aZ"/><g id="B"><use transform="matrix(0.05,0,0,0.05,0,0)" xlink:href="#aj"/><use transform="matrix(0.05,0,0,0.05,14.950000000000001,0)" xlink:href="#aZ"/><use transform="matrix(0.05,0,0,0.05,24.950000000000003,0)" xlink:href="#V"/><use transform="matrix(0.05,0,0,0.05,33.95,0)" xlink:href="#W"/><use transform="matrix(0.05,0,0,0.05,43.95,0)" xlink:href="#aZ"/><use transform="matrix(0.05,0,0,0.05,53.95,0)" xlink:href="#aj"/></g><g id="C"><use transform="matrix(0.05,0,0,0.05,0,0)" xlink:href="#ah"/><use transform="matrix(0.05,0,0,0.05,9,0)" xlink:href="#ac"/><use transform="matrix(0.05,0,0,0.05,19,0)" xlink:href="#ab"/><use transform="matrix(0.05,0,0,0.05,22.95,0)" xlink:href="#W"/><use transform="matrix(0.05,0,0,0.05,32.95,0)" xlink:href="#al"/><use transform="matrix(0.05,0,0,0.05,42.95,0)" xlink:href="#ai"/><use transform="matrix(0.05,0,0,0.05,52.95,0)" xlink:href="#ac"/><use transform="matrix(0.05,0,0,0.05,62.95,0)" xlink:href="#S"/></g><g id="D"><use transform="matrix(0.03703703703703702,0,0,0.03703703703703702,0,0)" xlink:href="#aw"/><use transform="matrix(0.03703703703703702,0,0,0.03703703703703702,2.9259259259259247,0)" xlink:href="#ax"/><use transform="matrix(0.03703703703703702,0,0,0.03703703703703702,10.333333333333329,0)" xlink:href="#aO"/><use transform="matrix(0.03703703703703702,0,0,0.03703703703703702,16.999999999999993,0)" xlink:href="#aP"/><use transform="matrix(0.03703703703703702,0,0,0.03703703703703702,19.925925925925917,0)" xlink:href="#aQ"/><use transform="matrix(0.03703703703703702,0,0,0.03703703703703702,27.33333333333332,0)" xlink:href="#au"/><use transform="matrix(0.03703703703703702,0,0,0.03703703703703702,34.740740740740726,0)" xlink:href="#P"/></g><g id="E"><use transform="matrix(0.05,0,0,0.05,0,0)" xlink:href="#aG"/><use transform="matrix(0.05,0,0,0.05,10,0)" xlink:href="#az"/><use transform="matrix(0.05,0,0,0.05,20,0)" xlink:href="#az"/></g><g id="F"><use transform="matrix(0.05,0,0,0.05,0,0)" xlink:href="#ay"/><use transform="matrix(0.05,0,0,0.05,10,0)" xlink:href="#aC"/><use transform="matrix(0.05,0,0,0.05,19,0)" xlink:href="#aD"/><use transform="matrix(0.05,0,0,0.05,29,0)" xlink:href="#aA"/><use transform="matrix(0.05,0,0,0.05,32.95,0)" xlink:href="#aE"/><use transform="matrix(0.05,0,0,0.05,42.95,0)" xlink:href="#aA"/><use transform="matrix(0.05,0,0,0.05,46.900000000000006,0)" xlink:href="#aB"/><use transform="matrix(0.05,0,0,0.05,51.900000000000006,0)" xlink:href="#aF"/><use transform="matrix(0.05,0,0,0.05,56.900000000000006,0)" xlink:href="#aG"/><use transform="matrix(0.05,0,0,0.05,66.9,0)" xlink:href="#aH"/><use transform="matrix(0.05,0,0,0.05,75.9,0)" xlink:href="#aB"/><use transform="matrix(0.05,0,0,0.05,80.9,0)" xlink:href="#aA"/><use transform="matrix(0.05,0,0,0.05,84.85000000000001,0)" xlink:href="#aI"/><use transform="matrix(0.05,0,0,0.05,93.85000000000001,0)" xlink:href="#aA"/><use transform="matrix(0.05,0,0,0.05,97.80000000000001,0)" xlink:href="#aB"/><use transform="matrix(0.05,0,0,0.05,102.80000000000001,0)" xlink:href="#aJ"/></g><path fill="#e81313" d="M100-194c62-1 85 37 85 99 1 63-27 99-86 99S16-35 15-95c0-66 28-99 85-99zM99-20c44 1 53-31 53-75 0-43-8-75-51-75s-53 32-53 75 10 74 51 75" id="ba"/><path fill="#e81313" d="M114-163C36-179 61-72 57 0H25l-1-190h30c1 12-1 29 2 39 6-27 23-49 58-41v29" id="bb"/><g id="G"><use transform="matrix(0.05,0,0,0.05,0,0)" xlink:href="#ba"/><use transform="matrix(0.05,0,0,0.05,10,0)" xlink:href="#aE"/><use transform="matrix(0.05,0,0,0.05,20,0)" xlink:href="#aN"/><use transform="matrix(0.05,0,0,0.05,29,0)" xlink:href="#ay"/><use transform="matrix(0.05,0,0,0.05,39,0)" xlink:href="#bb"/><use transform="matrix(0.05,0,0,0.05,44.95,0)" xlink:href="#aI"/><use transform="matrix(0.05,0,0,0.05,53.95,0)" xlink:href="#ay"/></g><path fill="#e81313" d="M84 4C-5 8 30-112 23-190h32v120c0 31 7 50 39 49 72-2 45-101 50-169h31l1 190h-30c-1-10 1-25-2-33-11 22-28 36-60 37" id="bc"/><path fill="#e81313" d="M117-194c89-4 53 116 60 194h-32v-121c0-31-8-49-39-48C34-167 62-67 57 0H25l-1-190h30c1 10-1 24 2 32 11-22 29-35 61-36" id="bd"/><g id="H"><use transform="matrix(0.05,0,0,0.05,0,0)" xlink:href="#aH"/><use transform="matrix(0.05,0,0,0.05,9,0)" xlink:href="#bc"/><use transform="matrix(0.05,0,0,0.05,19,0)" xlink:href="#bb"/><use transform="matrix(0.05,0,0,0.05,24.95,0)" xlink:href="#bb"/><use transform="matrix(0.05,0,0,0.05,30.899999999999995,0)" xlink:href="#ay"/><use transform="matrix(0.05,0,0,0.05,40.9,0)" xlink:href="#bd"/><use transform="matrix(0.05,0,0,0.05,50.9,0)" xlink:href="#aB"/></g><path fill="#e81313" d="M101-234c-31-9-42 10-38 44h38v23H63V0H32v-167H5v-23h27c-7-52 17-82 69-68v24" id="be"/><path fill="#e81313" d="M210-169c-67 3-38 105-44 169h-31v-121c0-29-5-50-35-48C34-165 62-65 56 0H25l-1-190h30c1 10-1 24 2 32 10-44 99-50 107 0 11-21 27-35 58-36 85-2 47 119 55 194h-31v-121c0-29-5-49-35-48" id="bf"/><g id="I"><use transform="matrix(0.05,0,0,0.05,0,0)" xlink:href="#aA"/><use transform="matrix(0.05,0,0,0.05,3.95,0)" xlink:href="#bd"/><use transform="matrix(0.05,0,0,0.05,13.949999999999998,0)" xlink:href="#be"/><use transform="matrix(0.05,0,0,0.05,18.95,0)" xlink:href="#ba"/><use transform="matrix(0.05,0,0,0.05,28.950000000000003,0)" xlink:href="#bb"/><use transform="matrix(0.05,0,0,0.05,34.9,0)" xlink:href="#bf"/><use transform="matrix(0.05,0,0,0.05,49.85,0)" xlink:href="#aG"/><use transform="matrix(0.05,0,0,0.05,59.85,0)" xlink:href="#aB"/><use transform="matrix(0.05,0,0,0.05,64.85,0)" xlink:href="#aA"/><use transform="matrix(0.05,0,0,0.05,68.8,0)" xlink:href="#ba"/><use transform="matrix(0.05,0,0,0.05,78.8,0)" xlink:href="#bd"/></g><path fill="#3a414a" d="M141-36C126-15 110 5 73 4 37 3 15-17 15-53c-1-64 63-63 125-63 3-35-9-54-41-54-24 1-41 7-42 31l-33-3c5-37 33-52 76-52 45 0 72 20 72 64v82c-1 20 7 32 28 27v20c-31 9-61-2-59-35zM48-53c0 20 12 33 32 33 41-3 63-29 60-74-43 2-92-5-92 41" id="bg"/><g id="J"><use transform="matrix(0.06172839506172839,0,0,0.06172839506172839,0,0)" xlink:href="#bg"/><use transform="matrix(0.06172839506172839,0,0,0.06172839506172839,12.345679012345679,0)" xlink:href="#aO"/><use transform="matrix(0.06172839506172839,0,0,0.06172839506172839,23.45679012345679,0)" xlink:href="#aX"/><use transform="matrix(0.06172839506172839,0,0,0.06172839506172839,29.62962962962963,0)" xlink:href="#aw"/><use transform="matrix(0.06172839506172839,0,0,0.06172839506172839,34.50617283950617,0)" xlink:href="#aV"/><use transform="matrix(0.06172839506172839,0,0,0.06172839506172839,46.85185185185185,0)" xlink:href="#ax"/><use transform="matrix(0.06172839506172839,0,0,0.06172839506172839,59.197530864197525,0)" xlink:href="#O"/></g><path fill="#3a414a" d="M108 0H70L1-190h34L89-25l56-165h34" id="bh"/><path fill="#3a414a" d="M115-194c53 0 69 39 70 98 0 66-23 100-70 100C84 3 66-7 56-30L54 0H23l1-261h32v101c10-23 28-34 59-34zm-8 174c40 0 45-34 45-75 0-40-5-75-45-74-42 0-51 32-51 76 0 43 10 73 51 73" id="bi"/><g id="K"><use transform="matrix(0.06172839506172839,0,0,0.06172839506172839,0,0)" xlink:href="#bg"/><use transform="matrix(0.06172839506172839,0,0,0.06172839506172839,12.345679012345679,0)" xlink:href="#bh"/><use transform="matrix(0.06172839506172839,0,0,0.06172839506172839,23.45679012345679,0)" xlink:href="#bg"/><use transform="matrix(0.06172839506172839,0,0,0.06172839506172839,35.80246913580247,0)" xlink:href="#aw"/><use transform="matrix(0.06172839506172839,0,0,0.06172839506172839,40.67901234567901,0)" xlink:href="#aP"/><use transform="matrix(0.06172839506172839,0,0,0.06172839506172839,45.55555555555556,0)" xlink:href="#bg"/><use transform="matrix(0.06172839506172839,0,0,0.06172839506172839,57.901234567901234,0)" xlink:href="#bi"/><use transform="matrix(0.06172839506172839,0,0,0.06172839506172839,70.24691358024691,0)" xlink:href="#aP"/><use transform="matrix(0.06172839506172839,0,0,0.06172839506172839,75.12345679012346,0)" xlink:href="#P"/></g><g id="L"><use transform="matrix(0.06172839506172839,0,0,0.06172839506172839,0,0)" xlink:href="#bg"/><use transform="matrix(0.06172839506172839,0,0,0.06172839506172839,12.345679012345679,0)" xlink:href="#aW"/><use transform="matrix(0.06172839506172839,0,0,0.06172839506172839,18.51851851851852,0)" xlink:href="#aX"/><use transform="matrix(0.06172839506172839,0,0,0.06172839506172839,24.691358024691358,0)" xlink:href="#P"/><use transform="matrix(0.06172839506172839,0,0,0.06172839506172839,37.03703703703704,0)" xlink:href="#Q"/></g><path fill="#3a414a" d="M177-190C167-65 218 103 67 71c-23-6-38-20-44-43l32-5c15 47 100 32 89-28v-30C133-14 115 1 83 1 29 1 15-40 15-95c0-56 16-97 71-98 29-1 48 16 59 35 1-10 0-23 2-32h30zM94-22c36 0 50-32 50-73 0-42-14-75-50-75-39 0-46 34-46 75s6 73 46 73" id="bj"/><g id="M"><use transform="matrix(0.06172839506172839,0,0,0.06172839506172839,0,0)" xlink:href="#aP"/><use transform="matrix(0.06172839506172839,0,0,0.06172839506172839,4.876543209876543,0)" xlink:href="#aV"/><use transform="matrix(0.06172839506172839,0,0,0.06172839506172839,17.22222222222222,0)" xlink:href="#bj"/><use transform="matrix(0.06172839506172839,0,0,0.06172839506172839,29.5679012345679,0)" xlink:href="#aw"/><use transform="matrix(0.06172839506172839,0,0,0.06172839506172839,34.44444444444444,0)" xlink:href="#ax"/></g></defs></g></svg>